<svg xmlns="http://www.w3.org/2000/svg" viewBox="32.241 1 30.091 98" preserveAspectRatio="xMidYMid meet"><path d="M47.42 37.75c-3.894 0-7.108 5.527-7.681 12.742 1.673-3.843 4.428-6.35 7.548-6.35h-1.012l.438-1.998.439-1.997.44 2.003.439 1.992h-.746c.448 0 .893.057 1.333.157l-.288-.104 1.095-1.727 1.097-1.726-.272 2.033-.265 2.001c2.107.992 3.969 3.092 5.15 5.876-.134-7.294-3.793-12.902-7.715-12.902m-2.27 6.745-.826.3-.27-2.027-.27-2.027 1.099 1.732 1.093 1.721z" fill="currentColor"/><path d="M57.998 66.511c-.615-7.493-5.175-13.315-10.711-13.315S37.19 59.018 36.575 66.511h-.073v6.658h.073c.363-4.413 2.094-8.245 4.585-10.649l-.533-.487-1.51-1.38 1.955.621 1.131.357q.325-.243.661-.456l-.659-1.26-.947-1.813 1.624 1.252 1.413 1.086q.18-.07.363-.133l-.247-1.843-.27-2.026 1.098 1.731 1.094 1.722-.094.033q.517-.07 1.048-.07h-.746l.439-1.996.439-1.998.439 2.004.44 1.99h-1.011q.782.002 1.535.151l-.315-.114 1.096-1.727 1.097-1.729-.272 2.033-.257 1.932q.139.053.278.113l1.513-1.164 1.62-1.248-.951 1.817-.723 1.386q.276.183.542.385l1.321-.42 1.951-.617-1.517 1.383-.667.609c2.423 2.412 4.104 6.187 4.458 10.523h.073V66.51z" fill="currentColor"/><path d="M47.287 44.94c-4.753 0-8.659 5.821-9.188 13.315v1.286c1.109-2.475 2.715-4.468 4.618-5.715l-.683-1.309-.947-1.813 1.625 1.252 1.431 1.102c.1-.041.198-.086.297-.125.042-.021.085-.037.128-.058l-.249-1.854-.269-2.025 1.098 1.732 1.038 1.631q.186-.031.374-.055l.42-1.907.439-1.997.439 2.003.428 1.939q.17.03.335.064l1.071-1.688 1.096-1.727-.272 2.032-.258 1.945q.179.073.355.149l1.519-1.17 1.621-1.247-.951 1.816-.741 1.42c1.83 1.264 3.361 3.231 4.414 5.653v-1.342c0-7.485-4.435-13.307-9.188-13.307" fill="currentColor"/><path d="M47.647 36.955c1.445.06 2.822.883 3.978 2.262q.056-.717.057-1.466c0-5-1.909-9.054-4.262-9.054s-4.261 4.054-4.261 9.054q0 .81.066 1.58c1.301-1.56 2.823-2.443 4.422-2.376" fill="currentColor"/><path d="M46.089 15.647h2.397v6.391h-2.397z" fill="currentColor"/><path d="M48.584 22.571h-2.593l-.696 1.864h-.005v4.942c.627-.771 1.353-1.214 2.13-1.214.669 0 1.3.328 1.864.911v-4.64h-.002z" fill="currentColor"/><path d="M46.354 15.38h1.864v.533h-1.864z" fill="currentColor"/><path d="M46.622 14.848h1.331v.799h-1.331z" fill="currentColor"/><path d="M46.887 6.326h.799v8.788h-.799z" fill="currentColor"/><path d="M47.154 1h.267v6.924h-.267z" fill="currentColor"/><path d="M47.287 68.484c-4.369 0-7.856 3.602-7.856 8.043V99h15.711V76.527c.003-4.441-3.486-8.043-7.855-8.043m-3.862 29.983h-1.598v-1.863h1.598zm0-3.461h-1.598v-1.863h1.598zm0-3.729h-1.598v-1.864h1.598zm0-3.728h-1.598v-1.863h1.598zm0-3.462h-1.598v-1.864h1.598zm0-3.73h-1.598v-1.863h1.598zm0-3.461h-1.598v-1.863h1.598zm1.065-5.858h1.599v1.864H44.49zm2.397 27.429H45.29v-1.863h1.598zm0-3.461H45.29v-1.863h1.598zm0-3.729H45.29v-1.864h1.598zm0-3.728H45.29v-1.863h1.598zm0-3.462H45.29v-1.864h1.598zm0-3.73H45.29v-1.863h1.598zm0-5.324v1.863H45.29v-1.863h.007a1.73 1.73 0 0 1 1.591-1.592zm2.132 23.434H47.42v-1.863h1.599zm0-3.461H47.42v-1.863h1.599zm0-3.729H47.42v-1.864h1.599zm0-3.728H47.42v-1.863h1.599zm0-3.462H47.42v-1.864h1.599zm0-3.73H47.42v-1.863h1.599zm0-3.461H47.42v-3.455c.798.064 1.533.742 1.599 1.592zm1.064-3.994h-1.597v-1.864h1.597zm2.396 25.565h-1.597v-1.863h1.597zm0-3.461h-1.597v-1.863h1.597zm0-3.729h-1.597v-1.864h1.597zm0-3.728h-1.597v-1.863h1.597zm0-3.462h-1.597v-1.864h1.597zm0-3.73h-1.597v-1.863h1.597zm0-3.461h-1.597v-1.863h1.597z" fill="currentColor"/><path d="M38.898 99V76.364a8.36 8.36 0 0 1 2.368-5.839l-.408-.373-1.51-1.379 1.955.621.912.289q.35-.267.727-.496l-.565-1.08-.947-1.813 1.625 1.252 1.264.972q.203-.077.408-.144l-.223-1.672-.27-2.027 1.099 1.732 1.029 1.618.202-.019.418-1.897.439-1.996.439 2.003.423 1.919.178.021 1.051-1.656 1.095-1.727-.271 2.033-.233 1.753q.167.06.329.126l1.358-1.046 1.621-1.247-.952 1.816-.627 1.203q.31.201.602.43l1.108-.352 1.949-.617-1.517 1.382-.545.497a8.36 8.36 0 0 1 2.244 5.709V99h2.396V73.967h-.074c-.615-7.492-5.176-13.314-10.711-13.314-5.537 0-10.097 5.822-10.712 13.314H36.5V99z" fill="currentColor"/><path d="M32.241 71.305h1.598V99h-1.598z" fill="currentColor"/><path d="M60.734 71.305h1.598V99h-1.598z" fill="currentColor"/><path d="m39.697 47.337-1.065 1.065-.533 6.392-1.065 1.599-.266 5.857-.533 1.598-.266 5.326z" fill="currentColor"/><path d="m55.145 47.87 1.062 1.064.533 6.392 1.067 1.598.265 5.859.532 1.598.268 5.325z" fill="currentColor"/><path d="m42.361 39.082-2.132 2.13-.265 4.793z" fill="currentColor"/><path d="m52.747 39.082 2.129 2.13.269 4.793z" fill="currentColor"/><path d="m35.175 70.525-.804.78V99h1.598v-.533h-.799v-1.863h.799v-1.598h-.799v-1.863h.799v-1.866h-.799v-1.864h.799v-1.864h-.799v-1.863h.799v-1.599h-.799v-1.864h.799v-1.866h-.799v-1.863h.799v-1.598h-.799v-1.863h.799v-5.276z" fill="currentColor"/><path d="m60.115 71.305-.761-.78-.75-.768v5.276h.798v1.863h-.798v1.598h.798v1.863h-.798v1.866h.798v1.864h-.798v1.599h.798v1.863h-.798v1.864h.798v1.864h-.798v1.866h.798v1.863h-.798v1.598h.798v1.863h-.798V99h1.599V71.305z" fill="currentColor"/></svg>
