<svg xmlns="http://www.w3.org/2000/svg" viewBox="158.4 57.303 87.288 285.898" preserveAspectRatio="xMidYMid meet"><path fill-rule="evenodd" d="M199.174 57.443c-.124.05-.447.349-.717.664l-.49.574-.124 2.093c-.141 2.399-1.346 45.1-1.275 45.172.026.026 1.559.088 3.406.138l3.359.092v-.521c0-1.218-1.326-45.649-1.381-46.255-.136-1.515-1.495-2.472-2.778-1.957m-3.241 52.777c-1.488.076-1.461.06-1.64 1.01-.188 1.004-.338 2.456-.69 6.703-.434 5.239-2.111 24.975-2.385 28.067-.14 1.577-.206 2.918-.148 2.981.085.092 13.671.017 15.663-.086a7.4 7.4 0 0 1 1.2.07c.367.054.734.054.815 0 .142-.094-3.075-38.528-3.239-38.698-.075-.078-8.197-.118-9.576-.047m-16.789 44.122c-.173.173-.211.563-.211 2.191s.038 2.019.211 2.192c.306.306 41.328.256 41.518-.051.123-.2.052-4.271-.077-4.401-.21-.209-41.231-.141-41.441.069m-4.028 8.789c-.113.294 0 4.642.126 4.836.085.132 5.185.166 24.766.166h24.659v-1.875c0-1.34-.06-2.056-.209-2.513l-.209-.637-2.012-.088c-4.614-.199-47.04-.099-47.121.111m-3.715 9.136c-.035.056-.074 1.482-.123 4.466l-.011.667H197.8c14.593 0 27.313-.013 28.267-.028.953-.015 1.913-.015 2.133.001l.4.027-.051-2.4c-.028-1.32-.061-2.476-.074-2.568-.024-.168-56.973-.333-57.074-.165m-4.182 18.449c-.026 5.087-.005 9.443.047 9.68l.094.43 8.353-.087c4.595-.048 8.654-.094 9.02-.102a9 9 0 0 1 1.301.083l.635.097-.035 25.708-.034 25.709.867.082a30 30 0 0 0 2.214.083l1.349.001.084.7c.046.385.084 20.815.085 45.4l.001 44.7h17.6v-90.759l1.5-.087a56 56 0 0 1 2.404-.087h.905l-.014-25.747c-.007-14.16.006-25.765.029-25.789.024-.023 4.378-.061 9.676-.084l9.633-.041.002-9.27c.001-5.098.038-9.404.082-9.569l.081-.3h-65.831zm-3.814 14.251c-.094.292.015 39.785.118 42.633.08 2.224.061 2.907-.104 3.667-.111.513-.157.979-.101 1.036.189.192 18.913.053 19.109-.143.231-.231.338-46.661.108-47.09-.18-.336-19.023-.438-19.13-.103M217.6 228.6v23.8h19.467v-47.6H217.6zm-4.719 28.011c-.045.116-.081 19.646-.081 43.4v43.19l16.433-.034 16.434-.034.015-.6c.013-.495.006-.514-.041-.109-.068.595-.113.607-2.386.626l-1.612.013-.088-5.698c-.048-3.134-.088-22.561-.088-43.172 0-28.968-.037-37.509-.16-37.633-.278-.277-28.319-.227-28.426.051M158.4 296.645c0 22.062.04 41.562.088 43.333l.088 3.222h28.667l-.088-5.9c-.048-3.245-.088-22.745-.088-43.333v-37.434H158.4z" fill="currentColor"/></svg>
