<svg xmlns="http://www.w3.org/2000/svg" viewBox="30.525 17.111 456.359 846.917" preserveAspectRatio="xMidYMid meet"><path fill="currentColor" d="m251.494 156.465-17.211-.931 13.955-1.396.464-4.185-18.608-2.327 20.936-1.396 3.256-1.86-15.817-17.213 19.54 12.095 8.372-.929 2.325-21.865 3.723 20.934 9.305 1.396 13.955-9.768-10.699 13.488 3.721 3.258 21.4-5.583-19.54 9.77.932 2.325 25.585 2.791-26.05 3.723-.932 8.372s2.792 10.235 2.792 13.955c0 3.723-4.651 6.514-2.792 8.375 1.86 1.862 6.979 13.493 6.979 13.493s4.187 5.581 5.582 5.581c1.396 0 8.839 9.305 10.699 17.211 1.86 7.91 3.256 14.886 6.048 17.213 2.789 2.327 7.442 4.654 7.907 6.512.467 1.862 6.979 0 6.979 0l3.256-7.906 2.792.465v-4.188l25.12 15.817-2.327 2.792.932 3.721-6.048 8.374s4.188.465 3.257 4.652-4.652 9.303-4.652 9.303l-4.651 6.047s-7.443 6.514-9.304 4.187-.931 33.493-11.63 33.028-6.047-1.394-6.047 1.862 6.976 62.336 5.115 64.663c-1.859 2.325-5.582 4.185-5.582 4.185l1.862 11.63-3.259 2.791s2.792 30.237 1.396 33.028-4.652-.929-4.652 3.256c0 4.187-3.256 42.798 10.234 53.033 4.652 1.862 3.723 16.284 3.723 16.284s7.443.464 6.048 3.721c-1.396 3.256-7.443 27.909.465 29.308 7.907 1.394 16.746 7.907 16.746 7.907l-.929 14.887-.932 6.514-8.839 9.304 1.86 63.265 2.327 1.862-3.256 1.396 3.256 39.076 4.651 13.025 6.979 7.908 1.396 10.701-5.118 5.58s5.118 8.839.932 15.817c-2.327 5.581 3.72 5.116 3.72 5.116l4.654 4.654v29.306h24.654l14.886 5.583.465 26.516 59.547 1.396 18.608 7.907.929 33.495-17.211 3.256H30.525V820.3h85.598v-31.168h43.263l1.859-37.682 8.839-2.325s-4.651-8.374-3.258-12.097c1.398-3.721.932-8.839-.465-10.699-1.394-1.86-.929-12.562-.929-12.562l4.651-2.789 9.771-18.608 2.324-39.076s-5.116-.467-1.396-6.047c3.723-5.583 2.327-61.872 2.327-61.872l-8.374-10.234-.467-6.979-1.858-17.213 10.232-.93v2.327l1.862-3.258 5.116.467 2.327-11.166-.467-21.398s1.397-4.653 3.258-4.653 3.256-14.42 3.256-14.42l7.908-.467s-3.256-1.859.464-5.583c3.723-3.72 6.515-3.72 6.515-3.72s10.699-16.747 6.979-26.052c-3.723-9.304.929-13.491.929-13.491s-3.721-29.772 1.396-44.659c-.464-4.651-3.256-8.372-3.256-8.372s6.515-6.514 5.119-13.957c-1.398-7.445-.932-15.815-.932-17.211 0-1.398-2.791-12.562-.932-18.609 1.863-6.047-5.116-4.187-5.116-8.838 0-4.652 1.396-10.235 3.257-16.282 1.859-6.049 2.324-20.002 2.324-20.002s-9.768.929-10.234-1.863 4.189-26.516 12.562-34.891c4.651-6.976-1.396-15.351-4.188-19.538-2.789-4.188-5.116-6.979-2.789-13.026 2.325-6.047 3.254-14.886-.467-15.351-3.723-.464-8.372-9.768-8.372-9.768s-7.443-9.77-6.979-20.469c.465-10.701 12.095-25.587 12.095-25.587s-6.512-22.793-6.048-42.796c.465-20.004-.464-7.445-.464-7.445s-5.583-7.441-3.723-11.164 1.86-7.443 1.86-7.443-5.116-3.256-5.116-7.443-1.396-10.234 0-11.63 3.72-6.048 3.72-6.048l-6.512-7.443s-2.791-6.047-.931-8.839 9.77-2.792 9.77-2.792l-.931-8.839s-7.443.932-5.581-5.118c1.86-6.047 8.839-12.095 8.372-15.351-.465-3.256 6.979 5.583 6.979 5.583l6.512-2.792.465 3.723s-.465 14.419-4.185 14.419c-3.723 0-1.396 6.512-1.396 6.512l10.699 1.398 1.396 12.095-9.768 2.327-1.862 12.095s6.515 8.374 6.515 15.351c0 6.976-1.863 17.677.464 25.587 2.327 7.907 8.839 29.772 6.512 38.145-2.326 8.374 6.513 2.324 7.443 10.699.932 8.375 3.723 17.678 6.048 15.351 2.327-2.321 9.77-15.347 6.979-21.859"/></svg>
