<svg xmlns="http://www.w3.org/2000/svg" viewBox="106.347 0 587.306 457.6" preserveAspectRatio="xMidYMid meet"><path fill="currentColor" d="m687.164 379.91 1.246-.341-.629.943-.818.423-1.213.527-1.213.59-1.173.845-.575.354-2.554.304.14-.56.41-.754.447-.781.334-.309.895.063 1.17-.776.822.103 2.02-.475Zm-14.015 17.996.288-.37.122-.69 3.157 1.342.226.748-.431 3.513-.65.42-.11-.085.005-2.065-.447-1.048-.241-.237-1.052-.422-1.387.07-.2-.189-.075-.339.163-.298Zm-113.295 11.742.101.549-.297 1.102-.156.216-.178-.098-1.01.433-.387 1.357-.238.374-.854.55-1.766.744-.745.692-1.857 1.22-1.825 2.668-.257.68-.052.928-.244 1.04.054.428.245.23.192.435.006.27-.012.221.078.34-.102.127-.096.08-.114-.12-.21-.395-.209-.444.114-.475-.204-.435-.114.024-.257.332-.17.41-.548-.145-.438.271-.205 1.14.027.398.247.56.547.67.534.29 1.186 2.03.396-.036.575-.542 1.06-1.977-.028-.579 1.94-2.559.12-.383-.297-.845.081-.108 1.182-.353 2.83 1.286 1.464-.677.11-1.405.989-1.415.542-.55.505-.118.699.147 1.166-.481.498-.443 1.872-.796.282-.04 1.345.699 2.14-.55.316.144 1.12-.525.244-.522.362-1.831.476-.423.52.403 1.089.453 2.009.275.505.501.076.816 1.691.125.231-.478-.037-1.682.193-1.16.082-.119.513-.01 1.367 1.741.631.58.98.492.535.138.105-.197.95-.226 2.697.502 4.886 1.904 5.965-2.337.204-.607.117-2.043-.726-.572-.381-.668 1.64.162 1.424-1.109.591.604 2.139-.11 2.814 1.07.242-.228 3.306-.197 3.029.034 3.07.362 1.9-.048 4.62-.673 3.86.441 1.046-.986 3.388-1.01 1.863-.41 1.807.224 2.202-.3 3.718-.694 1.48-1.173.329-.584.826-.434 2.103-1.753 3.286-1.434 1.228-1.458 1.154-1.883 2.028-.181 1.556-.824 3.04-3.68 1.688-.433.815-.26 2.323-1.501.916-.281.43.366.364.085 1.69-.697.53.17.036.302-1.177 1.903-.858.854-2.619 1.598.025-1.95-.471-.571-.472-.07-.402.14-.63.49-.642 1.172.007 1.317 1.332 1.8 1.45.751 1.289.063.272.363-.474.872.7 1.61.977.932 1.431-.266.883.04.883.37 1.16.82.84-.03.542-.299.28-.277.342-.76.89-.693.189-.063.483.193 1.23 1.2.161.827-.169.726 1.563 2.374.547.562.509.254.498.015.922-.502.23-.687.055-.296.225-.261 1.542-1.296.59-.03.868.177 1.544-.747 1.17-1.115.583-.9h.766l.08.424.964-.322.443-.64.054-.553-.09-.408.146-.71 1.586-.61 1.401-.305 1.496-.032.28.34.441.166 1.485.065.378-.185.518.332.095.291-1.314 1.805-2.216 1.193-2.374.59-6.958 3.374-6.321 2.738-20.905 10.364-5.508 2.35-7.684 2.895-12.76 4.53-.587.344-.302-.078-.816.273-7.058 2.807-4.46 1.929-6.637 3.295-3.15 1.3-11.402 3.475-2.28.566-1.707.355-3.29.07-.248-.173-.707-1.298-2.393.518-3.009 1.272-4.338 1.37-2.567.598-6.718 2.315.07-1.141-.695-.129-2.014-.097-2.66.479-8.03-.157.106-.602-1.603-.02-2.37.601-2.048.726-3.306 1.595-4.582 1.76.025-1.143.559-.556-.22-.454-.659-.372-.408-.455-3.068.295-.795-.027-.518-.217-.223-.165-.072-.356.425-.533.422-.69-.125-.497-.568-.493-1.63-.355-.5-.833-.21-1.166.303-1.197.466-.92 1.025-1.228-.163-1.935-.261-.351-.063-.456.23-.636.24-.191.126-.621-.202-.51-.373-.24.255-1.762.544-2.861.342-.687 3.053-5.602.364-.609.684-2.072.423-1.021.758-1.601.347-.725.327-.737.691-2.35.097-.392.037-.01.017-.189.156-.53.616-2.617.803-2.97.185-1.526-.646-.01-.173-.029-.152-.087-.359-.278-9.595-5.69-3.821-2.248-.32-.187-6.359-3.727-3.869-2.1-5.016-2.93-1.411-.968-4.302-2.626-5.845-3.875-3.122-1.89-8.004-4.986-2.54-1.494-3.965-2.428-.11.008.396-.297.097-.12.018-.227-.12-.344-.285-.308-.617-.462-.385-.377-.143-.316-.225-.764-.19-.274-.365-.209-.706-.096-.241-.13-.183-.141-.182-.277-.18-.389-.055-.273.046-.35.179-.203.294-.915-.012-.31-.047-.162-.087-.175-.131-.14-.184-.051-.215.052-.51.262-.273.281-.314.185-.38-.033-.516-.259-.192-.012-.356.124-.469.268-.451.073-.256-.1-.114-.13-.308-.724-.041-.136-.02-.337-.064-.202-.33-.396-.142-.074-.338-.014-.436.246-.363.368-.234.5-.19.103-.155.02-.294-.03-.17-.081-.642-.59-.226-.258-.415-.296-.326-.125-.454.043-.893.362-.89.206-.388-.066-.156-.105-.028-.217.109-.389.435-.51-.003-.127-.092-.277-.13-.162-.22-.122-.679-.16-.2-.132-.09-.347-.002-.345-.078-.428-.248-.315-.354-.142-.505-.01-.204-.117-.427-.397-.685-.12-.285.032-.181.257-.62.385-.137.034-.863-.103-.874-.249-.126-.094-.123-.279-.044-.214.026-.322.206-.73.022-.2-.016-.247-.147-.559-.096-.13-.148-.08-.464-.002-.425.134-.262-.07-.04-.118-.002-.18.083-.342.123-.305.002-.165-.029-.134-.19-.338-.423-.437-.399-.292-.126-.07-.475-.103-.089-.087-.04-.107-.004-.467.147-.164.386-.127.11-.15-.013-.224-.164-.526-.655-1.165-.138-.11-.294-.044-.284-.195-.26-.262-.252-.536-.214-.811-.453-.449-.532-.302-.272-.39-.243-.465-.57-.625v-.217l.22-.16.287-.063.378.05.222-.115-.017-.15-.128-.314.008-.095.11-.105.463-.117.148.05.258.216.081.019.133-.041.095-.176.05-.563-.345-.832-.034-.176-.046-.803.044-1.437-.092-.62-.302-.561-.242-.074-.088-.071-.067-.265.042-.209.454-.4.102-.151.004-.247-.112-.592-.298-.727-.229-.4-.553-.569-.116-.271.014-.197.15-.243.405-.035.665.153.114-.057.061-.133.013-.178-.285-1.2-.096-.798.15-.951-.047-.778-.544-1.205-.308-.204-.272-.061-.304-.15-.117-.171-.127-.1-.263.032-.99.283h-.196l-.412-.076-.186-.21-.062-.146-.023-.15.081-.778.09-.447.065-.144.638-.841.338-.114.514.104.233-.098.103-.104.184-.367.166-.611.031-.356-.03-.183-.167-.135-.271-.002-.13.03-.444.317-.275.005-.301-.18-.482-.495-.989-.442-.111-.288-.023-.16.01-.301.116-.598.006-.439-.077-.288-.089-.105-.237-.118-.678.092-.228-.024-.687-.692-.267.034-.194.084-.48.233-.268.023-.374-.15-.195-.175-.152-.227-.187-.538.05-.777-.08-.323-.106-.132-.298-.105-.153.029-.186.243-.101.424-.132.348-.123.168-.098.058-.13-.018-.14-.115-.098-.119-.092-.26-.218-.222-.257-.151-.458-.106-.426.061-.389.18-.383.69-.268.307-.147-.003-.438-.197-.22-.21-.31-.412-.177-.142-.165.024-.349.357-.234.126-.492-.012-.201-.164-.17-.24-.064-.19-.01-.264.172-.251.227-.181.065-.202-.227-.666-.177-.132-.356-.087-.26-.138-.096-.58-.014-.393.372-.485.015-.507-.161-.43-.419-.819-.088-.264.004-.446-.055-.691-.137-.531-.765-.397-.117-.215-.06-.205.025-.538-.17-.211-.361.007-.136.065-.088.106.027.39-.032.053-.171.016-.475-.08-.183-.116-.397-.405-.14-.663-.173-.082-.515-.654-.48-.208-.276-.047-.202-.208-.019-.143.347-1.008.014-.231-.261-.607-.405-.255-.515-.179-.451-.233-5.377.008-.316.001-3.04-.005-.49.016-9.404.029-9.798.11-9.543-.097-8.14-.02h-.21l-9.12.017-1.326-.01h-.558l-15.787.06-.459-.005-8.34-.053-.325-.009-6.803-.113-14.23-.153-4.918.001-1.426-.01h-6.367l-.082.01h-1.13l-.408.01-1.716.03-3.109.046-.007-.003-4.163.039-4.533.106-28.275-.067-18.172.128-5.413.024-.686.002-12.293-.023-2.485-.064-.016-.002-6.95-.104-10.88.149-2.744-.045-21.433-.046-11.373.177-9.287.055-8.045-.14-5.81-.03-8.714-.02-5.29.065-16.543.055-4.9-.027-.962-.014-5.491-.04.001.006-3.331-.033-6.778.027-.032-1.997.007-10.002-.031-1.228.02-1.95.007-1.199-.012-1.066v-.64l.006-.394-.023-5.96.014-.833v-1.858l3.279-1.49 5.383-3.106 3.816-2.614 3.546-2.189 2.62-1.906 2.689-2.205 1.579-.69 1.814-1.734 1.757-2.506 1.747-1.33 1.472-1.38.753-.88.719-.074.534.135.27-.076.625-.576.397-.513 2.553-1.143 1.392-1.203 1.615-.866 1.463-.437 2.226-.987 3.306-.786.755-1.088.664-2.559.25-.112.322-.333.61-1.187.175-.743 2.422-2.696.408.01.706-.484.111-2.384.996-2.102 2.228-1.253.944-.304 1.114-.08 3.492-2.69 1.931-.536 3.685-3.339 1.122-1.386.156-.79-.379-.86-.215-.04-.935-2.586.205-.766.649-.138.073-.633-.456-1.114-.493-.096-.767-1.414-.676-1.783-1.545-.174.497-1.359.008-2.373-.26-1.004-.72-1.38-1.004-.914-2.184-.193-.988-1.116-2.711-1.676-.625-.964-.07-1.984.68-1.49.49-1.84-.021-1.035-.378-.728-4.75-1.37-.015-.537.372-.53.365-.493.332-1.21-.083-.61-.042-.434-.04-.491.171-.47.256-.21.542-.834.401-.306.126-.57-.037-.56-.126-.417-.149-.927-.14-.234-.343-.917.038-1.019.135-1.402-.176-1.253.018-1.258-.223-1.682-.41-1.305-.674-1.133 3.76-1.146 3.565-.772 3.053-1.225 5.304-1.806 1.716-.766.164.092 4.182-.97 2.273-.766 3.737-.685 4.644-1.672 6.46-1.218 4.348-.533.47.034.7.37 7.643-.582.855.257 8.028.32 1.265.183 6.568-.659 3.023-.012 6.01.926 2.137.134 1.367-.398.832.112.913.47 2.244.664h1.33l2.191.746 4.368.623 1.423.378.91.061 1.85-.194.245.388 1.954.735 1.226.674.943 1.563 3.051 2.578.49.359 1.89.834 3.796 2.86 1.946.765 1.251.122 2.471-1.61 1.804-.425 2.957-1.14 1.658-.363 1.746-.725 3.708-.438 1.967-.038.79.294 2.957.08 3.723-.689 3.044.266 2.204-.618.965.197 1.379-.236 3.31.715 2.484.992 2.539-.024.835-.31 2.232.458.463-.07 2.215-1.46 1.342-.696 1.29-.212.708.099 1.665-.563.989-.71 3.489-.432 1.907-.9 1.632-1.331 1.19-1.22 2.428-.104 1.003-.843 1.132-1.413 2.002-3.549.884-1.239 1.759-1.024 3.288-2.574 2.304-1.204.73-.851.454-.258.67.205 1.478-.637 1.074-1.784 2.602-1.683 1.478-1.237.516-.192 3.104-.273 1.735 1.27 1.084.149 2.511-.092 2.767-1.215 1.784-.464.53-.382.798-1.247.603-1.535.473-1.522.323-2.613.188-5.06-.656-7.087-.577-3.574-1.194-5.208-1.304-1.418-1.685-.85-.452-.805-1.744-.54.256-1.557.715-1.416 1.787-1.205 2.502-.708 1.175-1.488.204.354-1.321 2.328.607.849 1.267.198.704-.44.904-.862 1.661-1.032.947-.117.909-.443.444-.506.168-1.535-.403-2.095-.461-.155-.18-.639.35-.504.777-.586.849-.344.848-1.276 1.343-1.032h.707l.637-.442.035-.393-.141-.393-.53-.295-.601-.492-2.793 2.604-1.273.688-.727-.003-.961.589-.802-.331-1.12-.921-1.142.33-.576-.972.027-.58.378-.666 1.131-1.13 2.9-.885 1.449-1.131.6-1.18-.035-.295-.247-.197-.813-.147-.354.147-.707.541-.742.098-.636-.295 1.237-1.377.353-.885-.282-.541-.283-.246h-.601l-.53-.098-.53.246-.496.246-1.414.442-.46-.049-.247-.197-.141-.295.035-.197.566-.787v-.197l-.142-.098-.495.197-.46.393-2.262.64-.6.738-1.309 2.213-.318 1.377.177.196.318-.049 3.288-1.327 1.131-.099.954.05.142.147.035.295-1.414 2.409v.835l-1.347 1.68-1.314 1.207-1.94.674-.256-.745 1.145-2.104.146-.857-.218-.575-.91-.83-.438-.23-.644.302-.332-.142-.485-1.704.78-1.973-.264-1.213-.273-.233-4.167-1.185-.037-1.731-.458-1.32.233-1.168.421-1.205.185-1.026.243-.411 2.953-6.402 1.94-.49 2.74-.042.31.052 2.875-1.127 1.148-.694 2.01-1.903.18-4.271 2.3-1.646.32.213.627-.028.46-.33 1.084-.157 3.872-3.341 2.739-1.26.547-.382 1.382.013.305.055.256.073.133.264.213.083 1.533-.654.734-.65.758-.438.536-.631.688-.25 3.082-2.781 3.764-3.89.97-4.1 3.086-4.604 2.91-2.81 2.263-2.582 2.541-2.54 3.27-2.89 2.783-3.016 5.572-5.909 2.1-1.582 3.988-3.776.747-1.315 1.254-.479.716-.686 1.116-.323.445-.666 1.473-1.684.95-.085 2.025-2.07-.085-1.118 1.82-1.293 1.105-.625.946-.265 1.056-.976.941-.098.75-.801 1.153-.21.505-.401.59-.194 1.72-1.06 1.647-.725.667-1.217 1.056-.628 1.084-.353.632-.616 2.26-.326.466-.462 2.44-1.259 1.632-1.242.408-.79.029-.6.484-.61 1.507-.625 1.915-.133 2.877.137.537-.986.958-.766.788-.139.636.01.5-.158.557-.275.614-.515.854-.461.602-.123.515.313.474-.07.582.266.445.197.467.471 1.812.08.634.94 1.157.458.991.017.649-.803 1.527-.553 1.34.382.412-.038.4-.094.424-.074.435.216 8.354.094 6.797.175 9.089.539 7.506-.026 6.487.068 20.222-1.021 8.291-.212 6.503.035 2.655-.059L576.194.7l7.002-.173-.525 1.738-.241.435-.09.295.04.346.09.359.199.464.406.604.447.481.036.12.025.441-.126 1.803.083 2.02-.037.675-.158.32-.5.349-.432.416-.19.299-.138.332-.167.429-.142.605-.314 1.722-.196.876-.213.447-.278.175-.306.389-.117.863.003.396.142.735.054.068.25.11.3.583.124.168.295.281.565.33.232.189.11.117.243.418 1.096 1.234.075.253.037.313.058 1.093-.046.373-.144.325-.634.608-.21.345-.12.496-.421 1.355-.246.447-.455.603-.131.363.036 1.688-.036 2.65.315.514v.089l-.296.729-.36.281.034.115.17.257.014.29-.288.103-.056.06-.065.859.197.278.03.271-.069.1-.184-.02-.08.04-.366.58.008.167.07.14.004.096-.385.747.341.448-.088.116-.523.417-.028.086.094.47-.045.43-.063.34-.194.422-.02.133.03.119.512.524.164.725.288.589.039.248-.036.184-.08.167-.279.341-.015.132.301.437.158.322.095.687.528.825.534.521.245.483.12.104.383.159.527.363.31.403.01.125-.05.247.022.122.55.77.052.172.023.337.084.19.07.076.34.142.142.19.068.566-.023.355.043.294.117.174.475.491.458.72.133.846.037.674.337.946.07.557.016.765-.103.962.363.919.12.554-.018.312-.162.959-1.074 2.677-.143.82-.193.644-.15.264-.292.344-.699.694-.238.385-.101.815.022.786.542 1.3.164.606.084.487.012.875-.052.64.023.958.146.883.403 1.436.337.795.095.6-.136.923-.28.786-.236.852-.282.586-.08.03-.345-.093-.088.026-.263.34-.203.147-.48.157.069.364-.563.433-.068.458-.293.243-.037.075-.002.344-.196.348-.265.604-.04.19-.643.414-.129.246-.214.238-.178.043-.34.236-.128.417-.1.058-.235.029-.155.148-.017.188.086.81-.054.183-.407.383-.077.201-.036.233.053.287.094.2-.01.08-.237.401-.067.717-.204.98-.066.162-.36.51-.268.16-.3.517-.002.135.15.565.152.882.03.502-.372 1.373-.96 2.069-.072.796-.132.855-.427 1.906.064.251.453.396.207.107.362.512.22.078.43.256.267.267.225.581.13.525.001.49-.39 2.611-.1.36-.003.283.102.452.329.855.096 1.91-.228 1.638.063.314.507 1.324.272 1.174.103.27.92 1.247.533 1.099.168.487-.007.144-.385.98-.161.558-.04.436.078.245.538.508.095.147.016.096-.107.281-.216.335-.391.21-.485.506-.134.313-.19.738.02.146.162.351.523.418.182.243.114.263.075.247.077.559.064.185.608.558.422.323.368.44.149.768.058.18.31.492-.009.151-.289.648-1.124 2.046-.041.206-.033.689.06.697-.051.356-.531.783-.387.375-.217.28-.439.807-.143.44-.134.244-.209.226-.278.156-.198.298-.037.19.131.377-.048.344-.271.906-.021.317-.482 1.153-.072.59-.241.47-.355.226-.125.143-.092.173-.158.622.05.217.713 1.14.048.168-.012.113-.437.844-.008.14.124.46.04.358-.25.435-.397.846-.067.23.02.128.172.312.147.105.467.152.253.386.842.671.396.235.162.085.175-.002.283-.188.577-.574.06-.129.062-.248-.065-.568-.002-1.236.423-.295.32-.373.073-.16.007-.12-.272-.675.11-.213.343-.453.005-.064-.195-.312.045-.178.222-.023.128.112.12.019.479-.12.038-.047.815.262.405-.365 1.075.016.283-.176.47.028.354.282.163.05.217-.346.108-.054.157.099.116.138.036.138.133 1.391.168.08.318.495.112.272.002.45-.044.441-.033.134-.273.537.338.228.019.06-.173.207-.067.232.054.13.08.046.64-.077.27.173.025.223.091.12.769.232.392.317.406.403.448.83.294.307.017.132-.148.22.02.717.173.063.091.098.338.71.033-.004.015.269-.037.3-.11.173-.256.2-.066.267.005.403.068.037-.025.405-.1 4.555-.31 10.17-.007.073-.012.694-.019.897-.253 9.746-.165 2.994-.51 13.613-.312 6.132-.335 9.37-.008.12-.005.215-.1 4.373-.213 6.47-.418-.156-.08.087-.125 1.413.246.636-.192.59-.342.62 1.079 5.657.851.008-6.505 23.821-11.56 42.56.837 3.66.71.004-.17 4.954-.25 4.154-.264 3.61-.132 2.982-.274 3.371-.22 3.433-.004.051-.443 6.48-.07 1.772-.362 5.31-.24 4.613-.076 2.13-.67 9.192-.29 4.712-.007.072-.007.09-.009.114v.051l-.007.05-.104 1.857-.007.144-.002.047-.008.215-.006.172-.067 1.014-.037.516-.015.197-.26 2.765-.167 2.908-.097 1.014-.315 3.966-.045 1.026.048.824-.151 1.204 2.42 3.825 2.65 4.343-1.989 1.18-.381.234-3.739 2.297-4.992 2.985-.56.337-6.544 4.024.386.7.424.591 1.679 2.789.527.847.535.877.706 1.152.58.945.542.758.052.109-.067.393-.283.807.045.591-.067.55Zm-8.16 9.723.008.088v.187l.059.236-.052.098-.29.079-.327-.285.008-.197.178-.039.037-.285.127-.088.17.078.075.07Zm-.46 2.638.21-.087.313.296.09.304-.068.91-.269.03-.251-.341-.05-.659Zm-19.871 15.63.063-.054.045.022.105.143-.405.913-.075.12-.142-.071-.07-.127.029-.065Zm-7.694 16.144-.317.066-.903.753-1.273.702-.31-.1-1.32.87-.783.222-.692.669-1 .127-.998.508-.26-.059-.327-.547-.112-.547.252-.585.729-.685.086-1.014-.452-1.185 1.398-1.138.891.005.454-.578.508-2.781.537-.753.105-.467-.051-1.406-.364-.072-.06-.254.09-1.169.831-1.045.685-.333.453.04.29.285 1.278.325 2.436-.325 2.504-.626.787.049.46.674.156 1.698.539 1.162.536.814-.45.995-.669.92-1.68 1.725-1.535 1.912-.083-.068-.675.48-1.157 1.233-.222-.358Zm-164.717-351.37h-1.105l-.354-.184-.044-.246.177-.86.707-.677.928-.184h1.15v.553l-.355.984Zm3.005.185-.575-.308-.353.124-.221-.124.265-.553.265-.492.884-.737.088.307-.353.308-.177.491.177.369Zm-9.162 14.83-.102-.283 2.936-3.19h2.12l-.792 1.347-2.528 1.63Zm8.196.921h-1.608l.74-1.594 2.247-1.984 1.072-.461-.46 1.276-1.404 2.515Zm307.227 273.583-.956-.791-.116-.498 1.787-1.085.839.174.566-.14.587-.374.084.373-1.379.564-.53.329Z" class="state"/></svg>
