<svg xmlns="http://www.w3.org/2000/svg" viewBox="21.17 10.402 77.653 99.156" preserveAspectRatio="xMidYMid meet"><path d="m89.06 25.48 1.06-14a1 1 0 0 0-.3-.8 1 1 0 0 0-.82-.27L22.05 18.9a1 1 0 0 0-.79.59 1 1 0 0 0 .1 1l3.86 5.43-1.83 6.54a1.1 1.1 0 0 0 0 .36l.43 4.78a1 1 0 0 0 .21.53l4.06 5.12 3.86 8.58A1 1 0 0 0 32 52l3 4.07-.64 15.51a1 1 0 0 0 0 .18l.84 5.9L30.12 100a1 1 0 0 0 .51 1.11L40.2 106a1 1 0 0 0 .8 0l2.21-.78.91 1.81a1 1 0 0 0 .64.52l7.61 2a1 1 0 0 0 .25 0 1 1 0 0 0 .85-.47l2.61-4.2.09-.19 1.38-3.83 5.51-2.72a.9.9 0 0 0 .38-.33l2.43-3.52 4.91-1.75a1 1 0 0 0 .65-.76l1.3-7a1.4 1.4 0 0 0 0-.19V82.5a1.1 1.1 0 0 0-.13-.5L62.33 64.8l36-21.44a1 1 0 0 0 .36-1.36ZM60.44 63.6a1 1 0 0 0-.46.61 1 1 0 0 0 .12.76l10.64 17.8v1.81l-1.18 6.3-4.68 1.67a1 1 0 0 0-.49.37l-2.46 3.58-5.63 2.78a1 1 0 0 0-.5.55l-1.49 4.11-2.16 3.49-6.46-1.66-1.1-2.2a1 1 0 0 0-1.23-.5l-2.63.94-8.49-4.37 5-21.7a.9.9 0 0 0 0-.37l-.86-6 .65-15.78a1 1 0 0 0-.2-.64L33.7 50.9l-3.87-8.59a1 1 0 0 0-.13-.21l-3.94-5-.39-4.31 1.9-6.79a1 1 0 0 0-.15-.84L24 20.68l64-8.11-1 13.07a1 1 0 0 0 .14.58l9.28 15.93Z" fill="none" stroke="currentColor" stroke-width="2" vector-effect="non-scaling-stroke"/></svg>
