<?xml version="1.0"?>

<svg version="1.1" id="Layer_1" xmlns="http://www.w3.org/2000/svg" xmlns:xlink="http://www.w3.org/1999/xlink" x="0px" y="0px" viewBox="0 0 368.209 303.305" style="enable-background:new 0 0 368.209 303.305;" xml:space="preserve">
<g>
&#x9;<g>
&#x9;&#x9;<path style="fill:#4C5354;stroke:#3F383A;stroke-width:1.028;stroke-linecap:round;stroke-miterlimit:10;" d="M16.877,279.129&#xA;&#x9;&#x9;&#x9;c-1.028,0-1.997-0.619-2.394-1.637c-0.484-1.234,0.057-2.617,1.208-3.215c0.731-0.645,14.597-13.91,5.313-32.781&#xA;&#x9;&#x9;&#x9;c-3.04-6.176-3.485-12.07-1.327-17.52c4.189-10.58,16.746-15.402,17.277-15.602c1.332-0.5,2.811,0.174,3.311,1.502&#xA;&#x9;&#x9;&#x9;c0.498,1.328-0.172,2.807-1.5,3.307c-0.131,0.051-10.988,4.26-14.318,12.707c-1.592,4.037-1.197,8.525,1.17,13.338&#xA;&#x9;&#x9;&#x9;c5.508,11.193,3.842,20.809,1.475,26.9c-2.767,7.121-7.511,12.133-9.278,12.824C17.505,279.072,17.19,279.129,16.877,279.129z"></path>
&#x9;&#x9;<path style="fill:#4C5354;" d="M40.265,209.877c-0.5-1.328-1.979-2.002-3.311-1.502c-0.307,0.115-4.623,1.773-9.022,5.191&#xA;&#x9;&#x9;&#x9;c0.124,0.133,0.242,0.289,0.34,0.484c1.647,3.26-2.487,5.67-3.756,8.031c-3.307,6.15-2.746,11.898-0.528,18.31&#xA;&#x9;&#x9;&#x9;c1.64,4.732,3.772,9.754,3.282,14.877c-0.514,5.373-2.262,10.854-5.471,15.242c-2.014,2.754-4.777,4.81-7.207,7.17&#xA;&#x9;&#x9;&#x9;c0.441,0.895,1.328,1.447,2.284,1.447c0.313,0,0.628-0.057,0.935-0.176c1.768-0.691,6.512-5.703,9.278-12.824&#xA;&#x9;&#x9;&#x9;c2.367-6.092,4.033-15.707-1.475-26.9c-2.367-4.813-2.762-9.301-1.17-13.338c3.33-8.447,14.188-12.656,14.318-12.707&#xA;&#x9;&#x9;&#x9;C40.093,212.684,40.763,211.205,40.265,209.877z"></path>
&#x9;</g>
&#x9;<g>
&#x9;&#x9;<polygon style="fill:#EF3F23;stroke:#A42911;stroke-width:1.028;stroke-miterlimit:10;" points="46.265,147.35 4.737,161.91 &#xA;&#x9;&#x9;&#x9;32.149,226.813 72.32,209.691 &#x9;&#x9;"></polygon>
&#x9;&#x9;<path style="opacity:0.5;fill:#B77D98;" d="M19.663,172.189c1.459,7.744,3.638,15.666,7.311,22.676&#xA;&#x9;&#x9;&#x9;c5.395,10.297,13.65,17.949,22.998,24.352l22.349-9.525L46.265,147.35l-27.865,9.771C18.224,162.17,18.733,167.26,19.663,172.189z&#xA;&#x9;&#x9;&#x9;"></path>
&#x9;&#x9;<path style="fill:#38195E;stroke:#0F0017;stroke-width:1.028;stroke-miterlimit:10;" d="M89.771,218.184&#xA;&#x9;&#x9;&#x9;c0.313,1.414,0.689,2.828,1.137,4.233c8.096,25.469,35.308,39.553,60.775,31.455c25.469-8.096,39.553-35.307,31.456-60.775&#xA;&#x9;&#x9;&#x9;c-0.446-1.406-0.952-2.777-1.515-4.111L89.771,218.184z"></path>
&#x9;&#x9;<path style="fill:#38195E;stroke:#0F0017;stroke-width:1.028;stroke-miterlimit:10;" d="M98.142,236.563&#xA;&#x9;&#x9;&#x9;c4.957,0.41,9.986,0.119,14.885-0.684c11.207-1.834,22.268-5.262,33.107-8.611c13.615-4.209,27.533-9.412,39.251-17.629&#xA;&#x9;&#x9;&#x9;c0.213-5.457-0.497-11.039-2.246-16.543c-0.446-1.406-0.952-2.777-1.515-4.111l-91.853,29.199&#xA;&#x9;&#x9;&#x9;c0.313,1.414,0.689,2.828,1.137,4.233C92.569,227.646,95.05,232.387,98.142,236.563z"></path>
&#x9;&#x9;<path style="fill:#EF3F23;stroke:#A42911;stroke-width:1.028;stroke-miterlimit:10;" d="M321.906,12.726L71.732,81.732&#xA;&#x9;&#x9;&#x9;c0,0-56.194,21.93-45.544,83.367c11.613,66.988,78.582,69.018,115.821,54.268l216.958-114.393&#xA;&#x9;&#x9;&#x9;C358.968,104.975,350.456,76.561,321.906,12.726z"></path>
&#x9;&#x9;<path style="fill:#FED93F;stroke:#A85B1E;stroke-width:1.028;stroke-miterlimit:10;" d="M321.906,12.726L71.732,81.732&#xA;&#x9;&#x9;&#x9;c0,0-56.194,21.93-45.544,83.367c11.613,66.988,78.582,69.018,115.821,54.268l216.958-114.393&#xA;&#x9;&#x9;&#x9;C358.968,104.975,350.456,76.561,321.906,12.726z"></path>
&#x9;&#x9;<path style="fill:#FED93F;stroke:#A85B1E;stroke-width:1.028;stroke-miterlimit:10;" d="M321.906,12.726L71.732,81.732&#xA;&#x9;&#x9;&#x9;c0,0-56.194,21.93-45.544,83.367c11.613,66.988,78.582,69.018,115.821,54.268l216.958-114.393&#xA;&#x9;&#x9;&#x9;C358.968,104.975,350.456,76.561,321.906,12.726z"></path>
&#x9;&#x9;<polygon style="opacity:0.5;fill:#D1DBE0;" points="7.991,162.512 32.919,223.932 46.796,217.82 34.718,217.82 &#x9;&#x9;"></polygon>
&#x9;&#x9;<polygon style="fill:#D90025;stroke:#A42911;stroke-width:1.028;stroke-miterlimit:10;" points="212.193,58.641 236.325,82.775 &#xA;&#x9;&#x9;&#x9;269.888,76.58 254.392,106.986 270.655,136.992 236.946,131.65 213.439,156.391 208.101,122.682 177.307,107.969 207.716,92.477 &#xA;&#x9;&#x9;&#x9;&#x9;&#x9;"></polygon>
&#x9;&#x9;<g>
&#x9;&#x9;&#x9;<polygon style="fill:#FED93F;stroke:#A85B1E;stroke-width:1.028;stroke-miterlimit:10;" points="87.766,77.309 76.12,94.336 &#xA;&#x9;&#x9;&#x9;&#x9;117.673,108.313 92.923,144.498 134.476,158.471 109.727,194.656 151.28,208.631 145.023,217.777 171.026,204.068 &#xA;&#x9;&#x9;&#x9;&#x9;120.774,68.203 &#x9;&#x9;&#x9;"></polygon>
&#x9;&#x9;&#x9;<path style="fill:#FED93F;stroke:#A85B1E;stroke-width:1.028;stroke-miterlimit:10;" d="M68.174,180.684l24.749-36.186&#xA;&#x9;&#x9;&#x9;&#x9;L51.37,130.523l24.75-36.188l-16.99-5.713c-15.884,10.57-40.28,34.143-32.941,76.476c6.955,40.125,33.775,56.939,62.166,60.805&#xA;&#x9;&#x9;&#x9;&#x9;l21.372-31.248L68.174,180.684z"></path>
&#x9;&#x9;&#x9;<polygon style="fill:#EF3F23;stroke:#A42911;stroke-width:1.028;stroke-miterlimit:10;" points="120.774,68.203 171.026,204.068 &#xA;&#x9;&#x9;&#x9;&#x9;190.292,193.91 141.666,62.441 &#x9;&#x9;&#x9;"></polygon>
&#x9;&#x9;&#x9;<path style="fill:#1763AF;stroke:#064591;stroke-width:1.028;stroke-miterlimit:10;" d="M358.968,104.975&#xA;&#x9;&#x9;&#x9;&#x9;c0,0-8.512-28.414-37.061-92.249l-35.137,9.691l37.335,100.938L358.968,104.975z"></path>
&#x9;&#x9;&#x9;<path style="fill:#1763AF;stroke:#064591;stroke-width:1.028;stroke-miterlimit:10;" d="M87.766,77.309l-16.033,4.424&#xA;&#x9;&#x9;&#x9;&#x9;c0,0-5.435,2.121-12.602,6.891l16.99,5.713L87.766,77.309z"></path>
&#x9;&#x9;&#x9;<polygon style="fill:#1763AF;stroke:#064591;stroke-width:1.028;stroke-miterlimit:10;" points="92.923,144.498 117.673,108.313 &#xA;&#x9;&#x9;&#x9;&#x9;76.12,94.336 51.37,130.523 &#x9;&#x9;&#x9;"></polygon>
&#x9;&#x9;&#x9;<polygon style="fill:#1763AF;stroke:#064591;stroke-width:1.028;stroke-miterlimit:10;" points="109.727,194.656 &#xA;&#x9;&#x9;&#x9;&#x9;134.476,158.471 92.923,144.498 68.174,180.684 &#x9;&#x9;&#x9;"></polygon>
&#x9;&#x9;&#x9;<path style="fill:#1763AF;stroke:#064591;stroke-width:1.028;stroke-miterlimit:10;" d="M109.727,194.656l-21.372,31.248&#xA;&#x9;&#x9;&#x9;&#x9;c19.008,2.588,38.722-0.623,53.655-6.537l3.013-1.59l6.258-9.146L109.727,194.656z"></path>
&#x9;&#x9;</g>
&#x9;&#x9;<path style="fill:#4788C8;stroke:#006EA7;stroke-width:1.028;stroke-miterlimit:10;" d="M136.732,72.469&#xA;&#x9;&#x9;&#x9;c0,1.488-1.207,2.697-2.697,2.697c-1.49,0-2.699-1.209-2.699-2.697c0-1.492,1.209-2.699,2.699-2.699&#xA;&#x9;&#x9;&#x9;C135.524,69.77,136.732,70.977,136.732,72.469z"></path>
&#x9;&#x9;<path style="fill:#4788C8;stroke:#006EA7;stroke-width:1.028;stroke-miterlimit:10;" d="M143.993,91.068&#xA;&#x9;&#x9;&#x9;c0,1.49-1.209,2.699-2.699,2.699c-1.49,0-2.697-1.209-2.697-2.699c0-1.488,1.207-2.697,2.697-2.697&#xA;&#x9;&#x9;&#x9;C142.784,88.371,143.993,89.58,143.993,91.068z"></path>
&#x9;&#x9;<path style="fill:#4788C8;stroke:#006EA7;stroke-width:1.028;stroke-miterlimit:10;" d="M150.674,111.51&#xA;&#x9;&#x9;&#x9;c0,1.488-1.206,2.699-2.696,2.699c-1.491,0-2.699-1.211-2.699-2.699c0-1.49,1.208-2.699,2.699-2.699&#xA;&#x9;&#x9;&#x9;C149.468,108.811,150.674,110.02,150.674,111.51z"></path>
&#x9;&#x9;<path style="fill:#4788C8;stroke:#006EA7;stroke-width:1.028;stroke-miterlimit:10;" d="M158.232,130.557&#xA;&#x9;&#x9;&#x9;c0,1.49-1.208,2.699-2.699,2.699c-1.49,0-2.697-1.209-2.697-2.699c0-1.49,1.207-2.697,2.697-2.697&#xA;&#x9;&#x9;&#x9;C157.023,127.859,158.232,129.066,158.232,130.557z"></path>
&#x9;&#x9;<path style="fill:#4788C8;stroke:#006EA7;stroke-width:1.028;stroke-miterlimit:10;" d="M166.994,154.564&#xA;&#x9;&#x9;&#x9;c0,1.49-1.208,2.699-2.698,2.699c-1.491,0-2.697-1.209-2.697-2.699c0-1.488,1.206-2.699,2.697-2.699&#xA;&#x9;&#x9;&#x9;C165.786,151.865,166.994,153.076,166.994,154.564z"></path>
&#x9;&#x9;<path style="fill:#4788C8;stroke:#006EA7;stroke-width:1.028;stroke-miterlimit:10;" d="M173.725,172.275&#xA;&#x9;&#x9;&#x9;c0,1.49-1.208,2.699-2.698,2.699c-1.491,0-2.699-1.209-2.699-2.699c0-1.488,1.208-2.697,2.699-2.697&#xA;&#x9;&#x9;&#x9;C172.517,169.578,173.725,170.787,173.725,172.275z"></path>
&#x9;&#x9;<path style="opacity:0.5;fill:#AB614C;" d="M321.906,12.726L71.732,81.732c0,0-56.194,21.93-45.544,83.367&#xA;&#x9;&#x9;&#x9;c11.613,66.988,78.582,69.018,115.821,54.268l216.958-114.393C358.968,104.975,350.456,76.561,321.906,12.726z M111.743,156.086&#xA;&#x9;&#x9;&#x9;c-40.549,17.037-39.423,53.605-39.423,53.605c-38.78-17.559-38.631-62.342-38.631-62.342&#xA;&#x9;&#x9;&#x9;c3.084-47.287,45.837-62.191,45.837-62.191l46.68-12.334l178.862-47.8l25.7,69.9l-138.473,63.137&#xA;&#x9;&#x9;&#x9;C192.296,158.061,164.753,133.814,111.743,156.086z"></path>
&#x9;&#x9;<g>
&#x9;&#x9;&#x9;<path style="fill:#0F4C84;stroke:#00173D;stroke-width:1.028;stroke-miterlimit:10;" d="M143.689,175.316&#xA;&#x9;&#x9;&#x9;&#x9;c-32.265,0-58.422,26.156-58.422,58.424c0,32.264,26.157,58.422,58.422,58.422c32.265,0,58.421-26.158,58.421-58.422&#xA;&#x9;&#x9;&#x9;&#x9;C202.11,201.473,175.954,175.316,143.689,175.316z M143.689,276.795c-23.779,0-43.056-19.275-43.056-43.055&#xA;&#x9;&#x9;&#x9;&#x9;s19.276-43.059,43.056-43.059c23.778,0,43.056,19.279,43.056,43.059S167.468,276.795,143.689,276.795z"></path>
&#x9;&#x9;&#x9;<g>
&#x9;&#x9;&#x9;&#x9;<g>
&#x9;&#x9;&#x9;&#x9;&#x9;<path style="fill:#00ADE4;stroke:#4860AC;stroke-width:1.028;stroke-miterlimit:10;" d="M143.689,292.162&#xA;&#x9;&#x9;&#x9;&#x9;&#x9;&#x9;c-1.987,0-3.597-1.611-3.597-3.598V178.916c0-1.986,1.609-3.6,3.597-3.6c1.985,0,3.599,1.613,3.599,3.6v109.648&#xA;&#x9;&#x9;&#x9;&#x9;&#x9;&#x9;C147.288,290.551,145.675,292.162,143.689,292.162z"></path>
&#x9;&#x9;&#x9;&#x9;&#x9;<path style="fill:#00ADE4;stroke:#4860AC;stroke-width:1.028;stroke-miterlimit:10;" d="M198.514,237.338H88.864&#xA;&#x9;&#x9;&#x9;&#x9;&#x9;&#x9;c-1.986,0-3.597-1.613-3.597-3.598c0-1.988,1.61-3.6,3.597-3.6h109.649c1.987,0,3.597,1.611,3.597,3.6&#xA;&#x9;&#x9;&#x9;&#x9;&#x9;&#x9;C202.11,235.725,200.501,237.338,198.514,237.338z"></path>
&#x9;&#x9;&#x9;&#x9;</g>
&#x9;&#x9;&#x9;&#x9;<g>
&#x9;&#x9;&#x9;&#x9;&#x9;<path style="fill:#00ADE4;stroke:#4860AC;stroke-width:1.028;stroke-miterlimit:10;" d="M104.923,276.105&#xA;&#x9;&#x9;&#x9;&#x9;&#x9;&#x9;c-0.922,0-1.842-0.353-2.544-1.055c-1.405-1.406-1.405-3.684,0-5.088l77.534-77.535c1.402-1.404,3.681-1.404,5.086,0&#xA;&#x9;&#x9;&#x9;&#x9;&#x9;&#x9;c1.406,1.406,1.406,3.686,0,5.088l-77.532,77.535C106.763,275.752,105.843,276.105,104.923,276.105z"></path>
&#x9;&#x9;&#x9;&#x9;&#x9;<path style="fill:#00ADE4;stroke:#4860AC;stroke-width:1.028;stroke-miterlimit:10;" d="M182.456,276.105&#xA;&#x9;&#x9;&#x9;&#x9;&#x9;&#x9;c-0.922,0-1.841-0.353-2.543-1.055l-77.534-77.535c-1.405-1.406-1.405-3.684,0-5.088c1.406-1.404,3.683-1.404,5.088,0&#xA;&#x9;&#x9;&#x9;&#x9;&#x9;&#x9;l77.532,77.535c1.406,1.404,1.406,3.682,0,5.088C184.298,275.752,183.378,276.105,182.456,276.105z"></path>
&#x9;&#x9;&#x9;&#x9;</g>
&#x9;&#x9;&#x9;</g>
&#x9;&#x9;&#x9;<g>
&#x9;&#x9;&#x9;&#x9;<path style="fill:#B3B5B8;" d="M106.974,230.141H88.864c-1.986,0-3.597,1.611-3.597,3.6c0,1.984,1.61,3.598,3.597,3.598h17.767&#xA;&#x9;&#x9;&#x9;&#x9;&#x9;C106.456,234.939,106.565,232.527,106.974,230.141z"></path>
&#x9;&#x9;&#x9;&#x9;<path style="fill:#B3B5B8;" d="M147.288,198.025v-19.109c0-1.986-1.613-3.6-3.599-3.6c-1.987,0-3.597,1.613-3.597,3.6v20.041&#xA;&#x9;&#x9;&#x9;&#x9;&#x9;C142.48,198.439,144.888,198.127,147.288,198.025z"></path>
&#x9;&#x9;&#x9;&#x9;<path style="fill:#B3B5B8;" d="M122.161,207.123l-14.694-14.695c-1.405-1.404-3.682-1.404-5.088,0&#xA;&#x9;&#x9;&#x9;&#x9;&#x9;c-1.405,1.404-1.405,3.682,0,5.088l14.39,14.389C118.429,210.168,120.234,208.566,122.161,207.123z"></path>
&#x9;&#x9;&#x9;&#x9;<path style="fill:#B3B5B8;" d="M162.023,220.494c-1.561-1.967-3.502-3.449-5.688-4.488l-9.047,9.049v-10.967&#xA;&#x9;&#x9;&#x9;&#x9;&#x9;c-2.404-0.002-4.842,0.342-7.195,0.984v9.982l-7.139-7.139c-2.152,1.154-4.193,2.558-5.967,4.209l8.018,8.016h-13.264&#xA;&#x9;&#x9;&#x9;&#x9;&#x9;c-0.023,0.08-0.058,0.158-0.082,0.238c-0.675,2.309-0.74,4.668-0.348,6.959h13.693l-9.265,9.264&#xA;&#x9;&#x9;&#x9;&#x9;&#x9;c1.573,1.863,3.452,3.459,5.522,4.652l8.83-8.828v11.699c2.385,0.297,4.816,0.25,7.195-0.117v-11.582l8.601,8.6&#xA;&#x9;&#x9;&#x9;&#x9;&#x9;c0.376-0.217,0.751-0.438,1.114-0.676c1.658-1.088,3.186-2.392,4.516-3.869l-9.145-9.143h13.833&#xA;&#x9;&#x9;&#x9;&#x9;&#x9;c0.563-2.266,0.909-4.809,0.749-7.197h-14.582L162.023,220.494z"></path>
&#x9;&#x9;&#x9;&#x9;<path style="fill:#B3B5B8;" d="M184.999,192.428c-1.405-1.404-3.684-1.404-5.086,0l-11.354,11.354&#xA;&#x9;&#x9;&#x9;&#x9;&#x9;c1.941,1.332,3.767,2.904,5.447,4.729l10.992-10.994C186.405,196.113,186.405,193.834,184.999,192.428z"></path>
&#x9;&#x9;&#x9;&#x9;<path style="fill:#B3B5B8;" d="M184.999,269.963l-12.783-12.785c-0.901,0.986-1.838,1.926-2.809,2.793&#xA;&#x9;&#x9;&#x9;&#x9;&#x9;c-0.802,0.715-1.651,1.396-2.525,2.049l13.031,13.031c0.702,0.701,1.621,1.055,2.543,1.055c0.922,0,1.842-0.353,2.543-1.055&#xA;&#x9;&#x9;&#x9;&#x9;&#x9;C186.405,273.645,186.405,271.367,184.999,269.963z"></path>
&#x9;&#x9;&#x9;&#x9;<path style="fill:#B3B5B8;" d="M198.514,230.141h-15.331c0.035,2.387-0.209,4.803-0.703,7.197h16.034&#xA;&#x9;&#x9;&#x9;&#x9;&#x9;c1.987,0,3.597-1.613,3.597-3.598C202.11,231.752,200.501,230.141,198.514,230.141z"></path>
&#x9;&#x9;&#x9;&#x9;<path style="fill:#B3B5B8;" d="M114.688,257.652l-12.31,12.31c-1.405,1.404-1.405,3.682,0,5.088&#xA;&#x9;&#x9;&#x9;&#x9;&#x9;c0.702,0.701,1.622,1.055,2.544,1.055c0.92,0,1.84-0.353,2.544-1.055l12.162-12.162&#xA;&#x9;&#x9;&#x9;&#x9;&#x9;C117.825,261.35,116.175,259.594,114.688,257.652z"></path>
&#x9;&#x9;&#x9;&#x9;<path style="fill:#B3B5B8;" d="M140.946,270.699c-0.287,0-0.568-0.02-0.854-0.025v17.891c0,1.986,1.609,3.598,3.597,3.598&#xA;&#x9;&#x9;&#x9;&#x9;&#x9;c1.985,0,3.599-1.611,3.599-3.598v-18.387C145.162,270.516,143.034,270.699,140.946,270.699z"></path>
&#x9;&#x9;&#x9;</g>
&#x9;&#x9;&#x9;<path style="fill:#D90025;stroke:#A42911;stroke-width:1.028;stroke-miterlimit:10;" d="M158.851,233.74&#xA;&#x9;&#x9;&#x9;&#x9;c0,8.373-6.787,15.162-15.161,15.162c-8.374,0-15.163-6.789-15.163-15.162c0-8.375,6.789-15.162,15.163-15.162&#xA;&#x9;&#x9;&#x9;&#x9;C152.064,218.578,158.851,225.365,158.851,233.74z"></path>
&#x9;&#x9;&#x9;<path style="fill:#4C5354;stroke:#231F20;stroke-width:1.028;stroke-linecap:round;stroke-miterlimit:10;" d="M143.689,169.578&#xA;&#x9;&#x9;&#x9;&#x9;c-35.436,0-64.163,28.727-64.163,64.16c0,35.438,28.728,64.162,64.163,64.162c35.434,0,64.163-28.725,64.163-64.162&#xA;&#x9;&#x9;&#x9;&#x9;C207.853,198.305,179.124,169.578,143.689,169.578z M143.689,281.025c-26.116,0-47.286-21.17-47.286-47.287&#xA;&#x9;&#x9;&#x9;&#x9;c0-26.113,21.17-47.287,47.286-47.287c26.114,0,47.284,21.174,47.284,47.287C190.974,259.855,169.804,281.025,143.689,281.025z"></path>
&#x9;&#x9;&#x9;<path style="fill:#4C5354;" d="M190.955,232.984c0.005,0.252,0.019,0.5,0.019,0.754c0,26.117-21.17,47.287-47.284,47.287&#xA;&#x9;&#x9;&#x9;&#x9;c-24.848,0-45.204-19.168-47.124-43.521c-6.352-3.619-11.903-8.402-16.198-14.098c-0.544,3.365-0.841,6.814-0.841,10.332&#xA;&#x9;&#x9;&#x9;&#x9;c0,35.438,28.728,64.162,64.163,64.162c35.434,0,64.163-28.725,64.163-64.162c0-3.725-0.337-7.367-0.945-10.916&#xA;&#x9;&#x9;&#x9;&#x9;C202.056,226.813,196.653,230.184,190.955,232.984z"></path>
&#x9;&#x9;&#x9;<polygon style="fill:#FFF200;stroke:#48B74A;stroke-width:1.028;stroke-miterlimit:10;" points="143.689,222.268 &#xA;&#x9;&#x9;&#x9;&#x9;147.166,229.313 154.94,230.441 149.314,235.926 150.644,243.67 143.689,240.012 136.735,243.67 138.064,235.926 &#xA;&#x9;&#x9;&#x9;&#x9;132.439,230.441 140.212,229.313 &#x9;&#x9;&#x9;"></polygon>
&#x9;&#x9;&#x9;<path style="opacity:0.4;fill:#FFFFFF;" d="M151.412,230.141c0,5.242-4.247,9.488-9.487,9.488c-5.24,0-9.486-4.246-9.486-9.488&#xA;&#x9;&#x9;&#x9;&#x9;c0-5.24,4.246-9.486,9.486-9.486C147.165,220.654,151.412,224.9,151.412,230.141z"></path>
&#x9;&#x9;&#x9;<path style="fill:#FFFFFF;" d="M149.677,171.508c0,0-51.055-4.275-65.788,49.146C83.889,220.654,97.251,177.148,149.677,171.508z&#xA;&#x9;&#x9;&#x9;&#x9;"></path>
&#x9;&#x9;</g>
&#x9;&#x9;<path style="opacity:0.5;fill:#D1DBE0;" d="M38.527,152.49c0,0-0.919-43.252,45.361-63.221l217.069-59.621L89.771,107.516&#xA;&#x9;&#x9;&#x9;C89.771,107.516,57.505,119.77,38.527,152.49z"></path>
&#x9;&#x9;<g>
&#x9;&#x9;&#x9;<path style="fill:#A8CEDE;stroke:#006EA7;stroke-width:1.028;stroke-miterlimit:10;" d="M358.751,111.508&#xA;&#x9;&#x9;&#x9;&#x9;c-1.834-0.035-3.547-1.17-4.234-2.992L317.96,11.665c-0.904-2.391,0.305-5.06,2.693-5.962c2.387-0.902,5.06,0.304,5.961,2.694&#xA;&#x9;&#x9;&#x9;&#x9;l36.558,96.853c0.903,2.389-0.306,5.059-2.694,5.961C359.909,111.424,359.325,111.521,358.751,111.508z"></path>
&#x9;&#x9;&#x9;<path style="fill:#4788C8;stroke:#006EA7;stroke-width:1.028;stroke-miterlimit:10;" d="M325.628,11.145&#xA;&#x9;&#x9;&#x9;&#x9;c0,1.491-1.207,2.698-2.698,2.698c-1.491,0-2.698-1.207-2.698-2.698c0-1.489,1.207-2.697,2.698-2.697&#xA;&#x9;&#x9;&#x9;&#x9;C324.421,8.448,325.628,9.656,325.628,11.145z"></path>
&#x9;&#x9;&#x9;<path style="fill:#4788C8;stroke:#006EA7;stroke-width:1.028;stroke-miterlimit:10;" d="M334.88,36.789&#xA;&#x9;&#x9;&#x9;&#x9;c0,1.489-1.207,2.698-2.698,2.698c-1.491,0-2.698-1.209-2.698-2.698c0-1.491,1.207-2.699,2.698-2.699&#xA;&#x9;&#x9;&#x9;&#x9;C333.673,34.089,334.88,35.297,334.88,36.789z"></path>
&#x9;&#x9;&#x9;<path style="fill:#4788C8;stroke:#006EA7;stroke-width:1.028;stroke-miterlimit:10;" d="M342.718,57.66&#xA;&#x9;&#x9;&#x9;&#x9;c0,1.49-1.207,2.699-2.699,2.699c-1.49,0-2.697-1.209-2.697-2.699c0-1.488,1.207-2.697,2.697-2.697&#xA;&#x9;&#x9;&#x9;&#x9;C341.511,54.963,342.718,56.172,342.718,57.66z"></path>
&#x9;&#x9;&#x9;<path style="fill:#4788C8;stroke:#006EA7;stroke-width:1.028;stroke-miterlimit:10;" d="M351.584,81.045&#xA;&#x9;&#x9;&#x9;&#x9;c0,1.492-1.208,2.699-2.698,2.699c-1.491,0-2.699-1.207-2.699-2.699c0-1.488,1.208-2.695,2.699-2.695&#xA;&#x9;&#x9;&#x9;&#x9;C350.376,78.35,351.584,79.557,351.584,81.045z"></path>
&#x9;&#x9;&#x9;<path style="fill:#4788C8;stroke:#006EA7;stroke-width:1.028;stroke-miterlimit:10;" d="M360.321,104.818&#xA;&#x9;&#x9;&#x9;&#x9;c0,1.488-1.208,2.697-2.699,2.697c-1.49,0-2.698-1.209-2.698-2.697c0-1.49,1.208-2.699,2.698-2.699&#xA;&#x9;&#x9;&#x9;&#x9;C359.113,102.119,360.321,103.328,360.321,104.818z"></path>
&#x9;&#x9;&#x9;<path style="fill:#A8CEDE;" d="M321.173,8.448c0,0-2.397,1.5,0.857,9.038l33.057,88.221l-31.172-88.564L321.173,8.448z"></path>
&#x9;&#x9;</g>
&#x9;</g>
</g>
</svg>