<svg xmlns="http://www.w3.org/2000/svg" width="1200" height="630" viewBox="0 0 1200 630" fill="none">
  <defs>
    <linearGradient id="bg" x1="132" y1="34" x2="1058" y2="578" gradientUnits="userSpaceOnUse">
      <stop stop-color="#0e1018"/>
      <stop offset="1" stop-color="#090b12"/>
    </linearGradient>
    <linearGradient id="ring" x1="0" y1="0" x2="1" y2="1">
      <stop stop-color="#60a5fa"/>
      <stop offset="1" stop-color="#f97316"/>
    </linearGradient>
    <filter id="shadow" x="-20%" y="-20%" width="140%" height="140%">
      <feDropShadow dx="0" dy="16" stdDeviation="18" flood-color="#000" flood-opacity=".45"/>
    </filter>
  </defs>
  <rect width="1200" height="630" fill="url(#bg)"/>
  <rect x="84" y="72" width="1032" height="486" rx="36" fill="rgba(255,255,255,0.03)" stroke="rgba(255,255,255,0.08)"/>
  <g filter="url(#shadow)">
    <circle cx="600" cy="315" r="182" fill="#101522" stroke="rgba(255,255,255,0.08)" stroke-width="2"/>
    <circle cx="600" cy="315" r="136" fill="#0b0f18" stroke="rgba(255,255,255,0.08)" stroke-width="2"/>
    <rect x="454" y="460" width="292" height="44" rx="22" fill="#121826" stroke="rgba(255,255,255,0.08)"/>
    <rect x="458" y="466" width="148" height="32" rx="16" fill="#60a5fa" opacity=".8"/>
    <rect x="618" y="466" width="92" height="32" rx="16" fill="#f97316" opacity=".82"/>
  </g>
  <circle cx="600" cy="315" r="120" fill="none" stroke="url(#ring)" stroke-width="16" stroke-linecap="round" stroke-dasharray="560 88" transform="rotate(-90 600 315)"/>
  <circle cx="600" cy="315" r="92" fill="#0d1220" stroke="rgba(255,255,255,0.08)" stroke-width="2"/>
  <rect x="594" y="232" width="12" height="86" rx="6" fill="#f8fafc"/>
  <rect x="600" y="308" width="68" height="10" rx="5" fill="#f8fafc" transform="rotate(28 600 308)"/>
  <g opacity=".95">
    <rect x="168" y="166" width="160" height="118" rx="18" fill="#121826" stroke="rgba(255,255,255,0.08)"/>
    <rect x="188" y="188" width="120" height="14" rx="7" fill="#60a5fa"/>
    <rect x="188" y="212" width="92" height="14" rx="7" fill="#a5b4fc" opacity=".8"/>
    <rect x="188" y="236" width="136" height="14" rx="7" fill="#f97316" opacity=".8"/>
    <rect x="872" y="166" width="160" height="118" rx="18" fill="#121826" stroke="rgba(255,255,255,0.08)"/>
    <rect x="892" y="188" width="120" height="14" rx="7" fill="#22c55e"/>
    <rect x="892" y="212" width="92" height="14" rx="7" fill="#f59e0b" opacity=".8"/>
    <rect x="892" y="236" width="136" height="14" rx="7" fill="#38bdf8" opacity=".8"/>
  </g>
  <g opacity=".8">
    <rect x="194" y="358" width="56" height="56" rx="14" fill="#60a5fa"/>
    <rect x="262" y="358" width="56" height="56" rx="14" fill="#1f2937"/>
    <rect x="194" y="426" width="56" height="56" rx="14" fill="#1f2937"/>
    <rect x="262" y="426" width="56" height="56" rx="14" fill="#f97316"/>
    <path d="M222 386h20M290 386h20M222 454h20M290 454h20" stroke="rgba(255,255,255,0.24)" stroke-width="6" stroke-linecap="round"/>
  </g>
  <circle cx="176" cy="494" r="56" fill="#60a5fa" opacity=".08"/>
  <circle cx="1020" cy="486" r="72" fill="#f97316" opacity=".07"/>
</svg>
