<svg xmlns="http://www.w3.org/2000/svg" width="1200" height="630" viewBox="0 0 1200 630" fill="none">
  <defs>
    <linearGradient id="bg" x1="110" y1="36" x2="1110" y2="594" gradientUnits="userSpaceOnUse">
      <stop stop-color="#101018"/>
      <stop offset="1" stop-color="#0b0b10"/>
    </linearGradient>
    <linearGradient id="panel" x1="0" y1="0" x2="0" y2="1">
      <stop stop-color="#1d1d28"/>
      <stop offset="1" stop-color="#12121a"/>
    </linearGradient>
    <linearGradient id="accentA" x1="0" y1="0" x2="1" y2="1">
      <stop stop-color="#8b5cf6"/>
      <stop offset="1" stop-color="#38bdf8"/>
    </linearGradient>
    <linearGradient id="accentB" x1="0" y1="0" x2="1" y2="1">
      <stop stop-color="#22c55e"/>
      <stop offset="1" stop-color="#f59e0b"/>
    </linearGradient>
    <filter id="shadow" x="-20%" y="-20%" width="140%" height="140%">
      <feDropShadow dx="0" dy="16" stdDeviation="18" flood-color="#000" flood-opacity=".45"/>
    </filter>
  </defs>
  <rect width="1200" height="630" fill="url(#bg)"/>
  <rect x="68" y="58" width="1064" height="514" rx="42" fill="rgba(255,255,255,0.03)" stroke="rgba(255,255,255,0.08)"/>
  <g filter="url(#shadow)">
    <rect x="126" y="130" width="252" height="170" rx="24" fill="url(#panel)" stroke="rgba(255,255,255,0.08)"/>
    <rect x="426" y="130" width="252" height="170" rx="24" fill="url(#panel)" stroke="rgba(255,255,255,0.08)"/>
    <rect x="726" y="130" width="252" height="170" rx="24" fill="url(#panel)" stroke="rgba(255,255,255,0.08)"/>
    <rect x="426" y="340" width="252" height="170" rx="24" fill="url(#panel)" stroke="rgba(255,255,255,0.08)"/>
  </g>
  <rect x="150" y="154" width="94" height="12" rx="6" fill="#60a5fa" opacity=".9"/>
  <rect x="150" y="178" width="176" height="14" rx="7" fill="#d8d8e6" opacity=".9"/>
  <rect x="150" y="203" width="136" height="14" rx="7" fill="#9ca3af" opacity=".6"/>
  <rect x="150" y="228" width="198" height="14" rx="7" fill="#9ca3af" opacity=".45"/>
  <g transform="translate(474 164)">
    <circle cx="52" cy="52" r="42" stroke="url(#accentA)" stroke-width="10" opacity=".9"/>
    <circle cx="52" cy="52" r="30" stroke="rgba(255,255,255,.14)" stroke-width="6"/>
    <rect x="48" y="16" width="8" height="22" rx="4" fill="#f8fafc"/>
    <rect x="48" y="66" width="28" height="8" rx="4" fill="#f8fafc" transform="rotate(-30 48 66)"/>
  </g>
  <g transform="translate(756 162)">
    <rect x="0" y="0" width="180" height="118" rx="18" fill="#12161f" stroke="rgba(255,255,255,0.08)"/>
    <rect x="18" y="16" width="144" height="18" rx="9" fill="#22c55e" opacity=".8"/>
    <rect x="18" y="44" width="110" height="18" rx="9" fill="#8b5cf6" opacity=".8"/>
    <rect x="18" y="72" width="132" height="18" rx="9" fill="#f59e0b" opacity=".8"/>
  </g>
  <g transform="translate(472 372)">
    <rect x="0" y="0" width="180" height="118" rx="18" fill="#12161f" stroke="rgba(255,255,255,0.08)"/>
    <circle cx="40" cy="40" r="12" fill="#60a5fa"/>
    <circle cx="138" cy="36" r="12" fill="#22c55e"/>
    <circle cx="92" cy="82" r="12" fill="#f59e0b"/>
    <path d="M52 40 L126 36" stroke="rgba(255,255,255,0.38)" stroke-width="5" stroke-linecap="round"/>
    <path d="M52 40 L92 82" stroke="rgba(255,255,255,0.38)" stroke-width="5" stroke-linecap="round"/>
    <path d="M126 36 L92 82" stroke="rgba(255,255,255,0.38)" stroke-width="5" stroke-linecap="round"/>
  </g>
  <g transform="translate(168 378)">
    <rect x="0" y="0" width="164" height="106" rx="18" fill="#12161f" stroke="rgba(255,255,255,0.08)"/>
    <rect x="18" y="16" width="128" height="18" rx="9" fill="#8b5cf6" opacity=".86"/>
    <rect x="18" y="44" width="90" height="18" rx="9" fill="#38bdf8" opacity=".86"/>
    <rect x="18" y="72" width="108" height="18" rx="9" fill="#f97316" opacity=".86"/>
  </g>
  <rect x="92" y="90" width="1016" height="1.5" fill="rgba(255,255,255,0.06)"/>
  <circle cx="86" cy="86" r="8" fill="url(#accentB)"/>
  <circle cx="1112" cy="542" r="82" fill="#8b5cf6" opacity=".06"/>
  <circle cx="1040" cy="96" r="66" fill="#38bdf8" opacity=".07"/>
</svg>
