<svg xmlns="http://www.w3.org/2000/svg" width="1200" height="630" viewBox="0 0 1200 630" fill="none">
  <defs>
    <linearGradient id="bg" x1="142" y1="48" x2="1064" y2="576" gradientUnits="userSpaceOnUse">
      <stop stop-color="#111019"/>
      <stop offset="1" stop-color="#09090e"/>
    </linearGradient>
    <filter id="shadow" x="-20%" y="-20%" width="140%" height="140%">
      <feDropShadow dx="0" dy="16" stdDeviation="18" flood-color="#000" flood-opacity=".45"/>
    </filter>
  </defs>
  <rect width="1200" height="630" fill="url(#bg)"/>
  <rect x="84" y="64" width="1032" height="502" rx="38" fill="rgba(255,255,255,0.03)" stroke="rgba(255,255,255,0.08)"/>
  <g filter="url(#shadow)">
    <rect x="154" y="102" width="892" height="426" rx="30" fill="#f4f1ea" stroke="rgba(255,255,255,0.16)"/>
  </g>
  <rect x="196" y="152" width="484" height="20" rx="10" fill="#111827" opacity=".85"/>
  <rect x="196" y="188" width="562" height="16" rx="8" fill="#111827" opacity=".45"/>
  <rect x="196" y="220" width="420" height="16" rx="8" fill="#111827" opacity=".36"/>
  <rect x="196" y="272" width="392" height="20" rx="10" fill="#111827" opacity=".82"/>
  <rect x="196" y="308" width="520" height="16" rx="8" fill="#111827" opacity=".42"/>
  <rect x="196" y="340" width="374" height="16" rx="8" fill="#111827" opacity=".36"/>
  <rect x="196" y="392" width="438" height="20" rx="10" fill="#111827" opacity=".82"/>
  <rect x="196" y="428" width="470" height="16" rx="8" fill="#111827" opacity=".42"/>
  <rect x="196" y="460" width="316" height="16" rx="8" fill="#111827" opacity=".36"/>
  <g>
    <rect x="714" y="150" width="110" height="32" rx="14" fill="#60a5fa"/>
    <rect x="836" y="150" width="110" height="32" rx="14" fill="#22c55e"/>
    <rect x="714" y="194" width="96" height="32" rx="14" fill="#f59e0b"/>
    <rect x="820" y="194" width="126" height="32" rx="14" fill="#8b5cf6"/>
    <rect x="714" y="238" width="140" height="32" rx="14" fill="#ef4444"/>
    <rect x="864" y="238" width="82" height="32" rx="14" fill="#38bdf8"/>
    <rect x="714" y="282" width="112" height="32" rx="14" fill="#a855f7"/>
    <rect x="836" y="282" width="116" height="32" rx="14" fill="#22c55e"/>
  </g>
  <rect x="700" y="344" width="232" height="150" rx="22" fill="#111827" opacity=".9"/>
  <rect x="724" y="368" width="184" height="16" rx="8" fill="#22c55e"/>
  <rect x="724" y="396" width="132" height="16" rx="8" fill="#8b5cf6"/>
  <rect x="724" y="424" width="160" height="16" rx="8" fill="#f59e0b"/>
  <circle cx="932" cy="150" r="18" fill="#ef4444"/>
  <circle cx="896" cy="186" r="14" fill="#38bdf8"/>
  <circle cx="948" cy="212" r="14" fill="#22c55e"/>
  <circle cx="914" cy="288" r="18" fill="#8b5cf6"/>
</svg>
