<svg xmlns="http://www.w3.org/2000/svg" width="1200" height="630" viewBox="0 0 1200 630" fill="none">
  <defs>
    <linearGradient id="bg" x1="132" y1="36" x2="1080" y2="594" gradientUnits="userSpaceOnUse">
      <stop stop-color="#0d1018"/>
      <stop offset="1" stop-color="#080a10"/>
    </linearGradient>
    <linearGradient id="lock" x1="0" y1="0" x2="1" y2="1">
      <stop stop-color="#38bdf8"/>
      <stop offset="1" stop-color="#8b5cf6"/>
    </linearGradient>
    <filter id="shadow" x="-20%" y="-20%" width="140%" height="140%">
      <feDropShadow dx="0" dy="16" stdDeviation="18" flood-color="#000" flood-opacity=".5"/>
    </filter>
  </defs>
  <rect width="1200" height="630" fill="url(#bg)"/>
  <rect x="84" y="70" width="1032" height="490" rx="38" fill="rgba(255,255,255,0.03)" stroke="rgba(255,255,255,0.08)"/>
  <g filter="url(#shadow)">
    <rect x="342" y="148" width="516" height="330" rx="36" fill="#11151c" stroke="rgba(255,255,255,0.08)"/>
  </g>
  <rect x="430" y="204" width="340" height="28" rx="14" fill="rgba(255,255,255,0.08)"/>
  <rect x="430" y="252" width="340" height="28" rx="14" fill="rgba(255,255,255,0.08)"/>
  <rect x="430" y="300" width="238" height="28" rx="14" fill="rgba(255,255,255,0.08)"/>
  <g transform="translate(495 238)">
    <rect x="0" y="66" width="210" height="160" rx="28" fill="#0f1420" stroke="rgba(255,255,255,0.08)"/>
    <path d="M40 66V46C40 20 60 0 92 0C124 0 144 20 144 46V66" stroke="url(#lock)" stroke-width="18" stroke-linecap="round"/>
    <circle cx="92" cy="144" r="22" fill="url(#lock)"/>
    <rect x="84" y="144" width="16" height="36" rx="8" fill="rgba(255,255,255,0.82)"/>
  </g>
  <path d="M282 396 L390 396" stroke="rgba(255,255,255,0.12)" stroke-width="10" stroke-linecap="round"/>
  <path d="M810 396 L918 396" stroke="rgba(255,255,255,0.12)" stroke-width="10" stroke-linecap="round"/>
  <circle cx="256" cy="390" r="34" fill="#38bdf8" opacity=".14"/>
  <circle cx="944" cy="390" r="34" fill="#8b5cf6" opacity=".14"/>
</svg>
