<svg xmlns="http://www.w3.org/2000/svg" width="1200" height="630" viewBox="0 0 1200 630" fill="none">
  <defs>
    <linearGradient id="bg" x1="120" y1="34" x2="1090" y2="594" gradientUnits="userSpaceOnUse">
      <stop stop-color="#0d1016"/>
      <stop offset="1" stop-color="#080a10"/>
    </linearGradient>
    <filter id="shadow" x="-20%" y="-20%" width="140%" height="140%">
      <feDropShadow dx="0" dy="16" stdDeviation="18" flood-color="#000" flood-opacity=".5"/>
    </filter>
  </defs>
  <rect width="1200" height="630" fill="url(#bg)"/>
  <rect x="74" y="64" width="1052" height="502" rx="40" fill="rgba(255,255,255,0.03)" stroke="rgba(255,255,255,0.08)"/>
  <g filter="url(#shadow)">
    <rect x="176" y="150" width="178" height="78" rx="18" fill="#1d4ed8" opacity=".9"/>
    <rect x="484" y="116" width="228" height="92" rx="18" fill="#7c3aed" opacity=".9"/>
    <rect x="794" y="152" width="170" height="78" rx="18" fill="#f97316" opacity=".9"/>
    <rect x="442" y="334" width="246" height="96" rx="18" fill="#22c55e" opacity=".92"/>
    <rect x="222" y="392" width="184" height="78" rx="18" fill="#ef4444" opacity=".9"/>
    <rect x="810" y="390" width="180" height="78" rx="18" fill="#38bdf8" opacity=".9"/>
  </g>
  <path d="M354 188 L484 162" stroke="rgba(255,255,255,0.6)" stroke-width="8" stroke-linecap="round"/>
  <path d="M712 162 L794 190" stroke="rgba(255,255,255,0.6)" stroke-width="8" stroke-linecap="round"/>
  <path d="M600 208 L562 334" stroke="rgba(255,255,255,0.6)" stroke-width="8" stroke-linecap="round"/>
  <path d="M300 392 L442 382" stroke="rgba(255,255,255,0.6)" stroke-width="8" stroke-linecap="round"/>
  <path d="M688 382 L810 428" stroke="rgba(255,255,255,0.6)" stroke-width="8" stroke-linecap="round"/>
  <path d="M688 382 L794 190" stroke="rgba(255,255,255,0.25)" stroke-width="6" stroke-linecap="round" stroke-dasharray="10 14"/>
  <circle cx="354" cy="188" r="12" fill="#93c5fd"/>
  <circle cx="484" cy="162" r="12" fill="#ddd6fe"/>
  <circle cx="712" cy="162" r="12" fill="#fdba74"/>
  <circle cx="794" cy="190" r="12" fill="#fdba74"/>
  <circle cx="562" cy="334" r="14" fill="#86efac"/>
  <circle cx="442" cy="382" r="12" fill="#86efac"/>
  <circle cx="300" cy="392" r="12" fill="#fca5a5"/>
  <circle cx="810" cy="428" r="12" fill="#7dd3fc"/>
  <circle cx="944" cy="429" r="10" fill="#7dd3fc"/>
  <circle cx="278" cy="423" r="12" fill="#fca5a5"/>
  <circle cx="592" cy="382" r="18" fill="#22c55e"/>
  <rect x="548" y="370" width="88" height="24" rx="12" fill="#16a34a"/>
  <rect x="514" y="406" width="156" height="16" rx="8" fill="rgba(255,255,255,0.28)"/>
</svg>
